# xmcd
#
# Track frame offsets: 
#        150
#        20262
#        41796
#        64338
#        74711
#        92170
#        120050
#        138227
#        160976
#        175766
#        199166
#        224086
#        253634
#        268503
#        297066
#        316355
#
# Disc length: 4380 seconds
#
# Revision: 1
# Processed by: cddbd v1.5.2PL0 Copyright (c) Steve Scherf et al.
# Submitted via: ExactAudioCopy v0.95b4
#
DISCID=f1111a10
DTITLE=Rony - Rony
DYEAR=2006
DGENRE=Soul
TTITLE0=Intro
TTITLE1=Rester un enfant
TTITLE2=Emma
TTITLE3=Ozlude
TTITLE4=J'me dis
TTITLE5=Le Soleil
TTITLE6=Ange du Ghetto
TTITLE7=Couleur (feat Electric Conversation)
TTITLE8=Même si
TTITLE9=Ces mots nous ont égarés
TTITLE10=Le Paradis (tu sais déjà)
TTITLE11=Regarde autour de toi
TTITLE12=Fume Trop
TTITLE13=Le Soleil (live)
TTITLE14=J'me dis (Broken mix)
TTITLE15=Outro
EXTD=
EXTT0=
EXTT1=
EXTT2=
EXTT3=
EXTT4=
EXTT5=
EXTT6=
EXTT7=
EXTT8=
EXTT9=
EXTT10=
EXTT11=
EXTT12=
EXTT13=
EXTT14=
EXTT15=
PLAYORDER=
